<svg xmlns="http://www.w3.org/2000/svg" viewBox="0 0 64 64"><defs><style>.cls-2{fill:#FF7080}.cls-3{fill:#ebebff}.cls-4{fill:#f27121}.cls-5,.cls-6{fill:none;stroke:#000;stroke-miterlimit:10}.cls-5{stroke-width:2px}.cls-8{opacity:.25}</style></defs><g style="isolation:isolate"><g id="Layer_1" data-name="Layer 1"><g id="Vector"><path class="cls-2" d="M61.2 55.12v3.16a2.53 2.53 0 0 1-2.52 2.53H5.32a2.53 2.53 0 0 1-2.52-2.53v-3.16a2.52 2.52 0 0 1 2.52-2.52h53.36a2.52 2.52 0 0 1 2.52 2.52zM56.72 32.58v3.86c-4.7.81-5 7.76-10.27 7.76-5.59 0-5.59-7.83-11.18-7.83s-5.6 7.83-11.18 7.83-5.59-7.83-11.18-7.83c-2.82 0-4.22 2-5.62 4v-7.79a4.83 4.83 0 0 1 5-4.61h39.42a4.82 4.82 0 0 1 5.01 4.61z"/><path class="cls-3" d="M56.72 36.44v15.33a4.67 4.67 0 0 1-.08.83H7.37a4.67 4.67 0 0 1-.08-.83V40.32c1.4-2 2.8-4 5.62-4 5.59 0 5.59 7.83 11.18 7.83s5.58-7.83 11.18-7.83 5.59 7.83 11.18 7.83c5.27.05 5.55-6.9 10.27-7.71zM28.88 19.37v7.72a1.88 1.88 0 0 1-.22.88h-8.35a1.77 1.77 0 0 1-.22-.88v-7.72a2 2 0 0 1 2-2h4.85a2 2 0 0 1 1.94 2zM43.92 19.37v7.72a1.87 1.87 0 0 1-.21.88h-8.36a1.87 1.87 0 0 1-.21-.88v-7.72a2 2 0 0 1 2-2H42a2 2 0 0 1 1.92 2z"/><path class="cls-2" d="M28 11.82a4.26 4.26 0 0 1-3.37 2.72c-1.73.08-3.14-1.54-3.63-2.72-1.09-2.45.23-6 3.47-8.63 3.2 2.65 4.61 6.15 3.53 8.63z"/><path class="cls-4" d="M26.23 12.54a2.09 2.09 0 0 1-1.65 1.34 2.16 2.16 0 0 1-1.83-1.34c-.53-1.2.12-2.94 1.71-4.24 1.59 1.3 2.29 3.02 1.77 4.24z"/><path class="cls-2" d="M43.09 11.82a4.24 4.24 0 0 1-3.36 2.72C38 14.62 36.54 13 36 11.82c-1.1-2.45.23-6 3.46-8.63 3.26 2.65 4.67 6.15 3.63 8.63z"/><path class="cls-4" d="M41.29 12.54a2.1 2.1 0 0 1-1.65 1.34 2.15 2.15 0 0 1-1.83-1.34c-.54-1.2.11-2.94 1.7-4.24 1.6 1.3 2.29 3.02 1.78 4.24z"/></g><g id="Line"><path class="cls-5" d="M17 60.81H5.32a2.53 2.53 0 0 1-2.52-2.53v-3.16a2.52 2.52 0 0 1 2.52-2.52h53.36a2.52 2.52 0 0 1 2.52 2.52v3.16a2.53 2.53 0 0 1-2.52 2.53H22M56.72 32.58v3.86c-4.7.81-5 7.76-10.27 7.76-5.59 0-5.59-7.83-11.18-7.83s-5.6 7.83-11.18 7.83-5.59-7.83-11.18-7.83c-2.82 0-4.22 2-5.62 4v-7.79a4.83 4.83 0 0 1 5-4.61h39.42a4.82 4.82 0 0 1 5.01 4.61z"/><path class="cls-5" d="M7.29 44v-3.68c1.4-2 2.8-4 5.62-4 5.59 0 5.59 7.83 11.18 7.83s5.58-7.83 11.18-7.83 5.59 7.83 11.18 7.83c5.27 0 5.57-7 10.27-7.76v15.38a4.67 4.67 0 0 1-.08.83H7.37a4.67 4.67 0 0 1-.08-.83V47M28.88 19.37v7.72a1.88 1.88 0 0 1-.22.88h-8.35a1.77 1.77 0 0 1-.22-.88v-7.72a2 2 0 0 1 2-2h4.85a2 2 0 0 1 1.94 2zM43.92 19.37v7.72a1.87 1.87 0 0 1-.21.88h-8.36a1.87 1.87 0 0 1-.21-.88v-7.72a2 2 0 0 1 2-2H42a2 2 0 0 1 1.92 2zM28 11.82a4.26 4.26 0 0 1-3.37 2.72c-1.73.08-3.14-1.54-3.63-2.72-1.09-2.45.23-6 3.47-8.63 3.2 2.65 4.61 6.15 3.53 8.63z"/><path class="cls-6" d="M26.23 12.54a2.09 2.09 0 0 1-1.65 1.34 2.16 2.16 0 0 1-1.83-1.34c-.53-1.2.12-2.94 1.71-4.24 1.59 1.3 2.29 3.02 1.77 4.24z"/><path class="cls-5" d="M43.09 11.82a4.24 4.24 0 0 1-3.36 2.72C38 14.62 36.54 13 36 11.82c-1.1-2.45.23-6 3.46-8.63 3.26 2.65 4.67 6.15 3.63 8.63z"/><path class="cls-6" d="M41.29 12.54a2.1 2.1 0 0 1-1.65 1.34 2.15 2.15 0 0 1-1.83-1.34c-.54-1.2.11-2.94 1.7-4.24 1.6 1.3 2.29 3.02 1.78 4.24z"/></g><g id="Shadow" style="mix-blend-mode:multiply"><path class="cls-8" d="M21 11.82c-1.09-2.45.23-6 3.47-8.63 3.25 2.65 4.66 6.15 3.62 8.63a4.26 4.26 0 0 1-3.37 2.72c-1.82.08-3.23-1.54-3.72-2.72zM36 11.82c-1.1-2.45.23-6 3.46-8.63 3.25 2.65 4.66 6.15 3.62 8.63a4.24 4.24 0 0 1-3.36 2.72C38 14.62 36.54 13 36 11.82z"/><path d="M58.68 52.6h-2a4.67 4.67 0 0 0 .08-.83V32.58a4.82 4.82 0 0 0-5-4.61h-8a1.87 1.87 0 0 0 .21-.88v-7.72a2 2 0 0 0-2-2h-3.84a7.45 7.45 0 0 0-1.67 1.08A7.18 7.18 0 0 0 35.14 20v7.07a1.87 1.87 0 0 0 .21.88h-2.23C33 32 33.41 36.09 33 40.13c-.44 4.36-2.12 8.91-5.76 11.35-4.11 2.76-9.51 2.18-14.45 1.81-3.26-.24-6.82-.2-9.8.93a2.45 2.45 0 0 0-.18.9v3.16a2.53 2.53 0 0 0 2.52 2.53h53.35a2.53 2.53 0 0 0 2.52-2.53v-3.16a2.52 2.52 0 0 0-2.52-2.52z" style="opacity:.25;mix-blend-mode:multiply"/></g></g></g></svg>