<svg xmlns="http://www.w3.org/2000/svg" viewBox="0 0 300 300" xml:space="preserve"><path fill="#F4F4F4" d="M271.239 219.242a7.814 7.814 0 0 1-7.814 7.811H36.57a7.808 7.808 0 0 1-7.808-7.811 7.806 7.806 0 0 1 7.808-7.808h226.855a7.81 7.81 0 0 1 7.814 7.808z"/><path fill="#F9F9F9" d="M39.831 219.242a7.806 7.806 0 0 1 7.808-7.808H36.57a7.806 7.806 0 0 0-7.808 7.808 7.809 7.809 0 0 0 7.808 7.811h11.07a7.81 7.81 0 0 1-7.809-7.811z"/><path fill="#F4F4F4" d="M172.507 259.716h-45.02c-6.37 0-11.526 5.159-11.526 11.523h68.073c-.001-6.364-5.157-11.523-11.527-11.523zM157.234 227.053h-14.468s4.043 17.508-6.062 32.663h26.592c-10.105-15.155-6.062-32.663-6.062-32.663z"/><path fill="#F9F9F9" d="M137.562 259.716h5.576c10.105-15.155 6.062-32.663 6.062-32.663h-6.435s4.043 17.508-6.062 32.663h-9.217c-6.37 0-11.526 5.159-11.526 11.523h10.076c.001-6.364 5.156-11.523 11.526-11.523z"/><path fill="#F4F4F4" d="M255.888 168.893v-21.406c0-5.739-4.647-10.386-10.39-10.386H54.495c-5.742 0-10.389 4.647-10.389 10.386v21.406s-.065 14.477 23.679 14.477c26.272 0 25.964-9.117 42.363-9.117 16.623 0 21.063 9.117 43.239 9.117 22.182 0 28.054-10.188 40.948-10.188 13.533 0 14.48 10.188 38.07 10.188 18.232 0 23.483-4.824 23.483-14.477z"/><path fill="#FE6F80" d="M232.404 183.37c-23.59 0-24.538-10.188-38.07-10.188-12.893 0-18.766 10.188-40.948 10.188-22.176 0-26.616-9.117-43.239-9.117-16.398 0-16.09 9.117-42.363 9.117-23.745 0-23.679-14.477-23.679-14.477v42.54h211.783v-42.54c0 9.653-5.251 14.477-23.484 14.477z"/><path fill="#F9F9F9" d="M65.103 168.893v-21.406c0-5.739 4.647-10.386 10.389-10.386H54.246c-5.742 0-10.389 4.647-10.389 10.386v21.406s-.071 14.477 23.673 14.477c4.979 0 8.998-.329 12.361-.858-14.788-3.082-14.788-13.619-14.788-13.619z"/><path fill="#FFA1AA" d="M43.857 168.893v42.54h21.246v-28.158c-21.246-.976-21.246-14.382-21.246-14.382z"/><path fill="#F4F4F4" d="M230.664 75.842H69.336a8.067 8.067 0 0 0-8.074 8.075v53.184h177.471V83.917a8.067 8.067 0 0 0-8.069-8.075z"/><path fill="#F9F9F9" d="M80.406 75.842h-11.07a8.067 8.067 0 0 0-8.074 8.075v53.184h11.07V83.917a8.067 8.067 0 0 1 8.074-8.075z"/><path fill="#9AE8CE" d="M94.347 137.101a11.24 11.24 0 0 0 1.048-4.694c0-6.251-5.067-11.319-11.325-11.319-6.251 0-11.319 5.067-11.319 11.319 0 1.675.385 3.262 1.042 4.694h20.554z"/><path fill="#AEF4DB" d="M87.025 121.525c-.947-.257-1.924-.438-2.954-.438-6.251 0-11.319 5.067-11.319 11.319 0 1.675.385 3.262 1.042 4.694h5.908a11.235 11.235 0 0 1-1.042-4.694c0-5.221 3.558-9.575 8.365-10.881z"/><path fill="#A880B2" d="M126.984 137.101a11.24 11.24 0 0 0 1.048-4.694c0-6.251-5.074-11.319-11.325-11.319-6.257 0-11.331 5.067-11.331 11.319 0 1.675.397 3.262 1.054 4.694h20.554z"/><path fill="#9AE8CE" d="M160.022 137.101a11.24 11.24 0 0 0 1.048-4.694c0-6.251-5.073-11.319-11.325-11.319-6.251 0-11.325 5.067-11.325 11.319 0 1.675.391 3.262 1.048 4.694h20.554z"/><path fill="#A880B2" d="M192.593 137.101a11.24 11.24 0 0 0 1.048-4.694c0-6.251-5.073-11.319-11.325-11.319-6.251 0-11.325 5.067-11.325 11.319 0 1.675.391 3.262 1.048 4.694h20.554z"/><path fill="#9AE8CE" d="M226.011 137.101a11.24 11.24 0 0 0 1.048-4.694c0-6.251-5.073-11.319-11.325-11.319-6.257 0-11.325 5.067-11.325 11.319 0 1.675.391 3.262 1.048 4.694h20.554z"/><path fill="#FE6F80" d="M238.733 88.09c-7.702.284-15.078 1.598-21.252 3.439-7.317 2.184-22.543 6.731-37.727 1.666-18.588-6.195-35.3-6.725-52.592-1.675-1.888.55-3.706 1.107-5.476 1.652-13.698 4.2-22.75 6.974-38.852-.204-7.423-3.306-14.864-4.466-21.572-4.552v12.13c5.245.08 10.999.989 16.635 3.499 9.01 4.014 16.493 5.482 23.307 5.482 8.501 0 15.966-2.288 24.035-4.763 1.723-.527 3.487-1.068 5.322-1.604 15.019-4.387 29.008-3.91 45.358 1.539 18.825 6.275 37.183.787 45.032-1.548 5.405-1.613 11.55-2.661 17.783-2.927V88.09z"/><path fill="#FFA1AA" d="M72.331 89.608a58.136 58.136 0 0 0-11.07-1.193v12.13c3.522.053 7.276.536 11.07 1.569V89.608z"/><path fill="#FE6F80" d="M137.858 75.842h17.132l1.859-2.093-5.938-6.692h.006a9.269 9.269 0 0 1 7.086-15.249c4.973 0 9.022 3.916 9.253 8.832l.006-.006.03.015c.225-4.635 3.842-8.341 8.412-8.764 1.231-2.226 1.959-4.774 1.959-7.501 0-8.625-6.985-15.622-15.617-15.622-8.383 0-15.202 6.604-15.587 14.894l-.053-.021-.018.003c-.391-8.273-7.205-14.877-15.587-14.877-8.625 0-15.616 6.997-15.616 15.622 0 3.839 1.391 7.344 3.682 10.07h-.006l18.997 21.389z"/><path fill="#FFA1AA" d="M129.257 54.454a15.589 15.589 0 0 1-3.676-10.07c0-6.799 4.369-12.529 10.436-14.672-1.64-.583-3.374-.95-5.215-.95-8.625 0-15.616 6.997-15.616 15.622 0 3.839 1.391 7.344 3.682 10.07h-.006l18.996 21.389h10.395l-18.996-21.389"/><path fill="#9AE8CE" d="M185.827 61.081a9.269 9.269 0 0 0-9.276-9.273c-4.973 0-9.028 3.916-9.259 8.841l-.03-.015-.006.006c-.231-4.916-4.28-8.832-9.253-8.832a9.27 9.27 0 0 0-9.276 9.273 9.22 9.22 0 0 0 2.19 5.976h-.006l7.802 8.785h17.126l7.802-8.785h-.006a9.21 9.21 0 0 0 2.192-5.976z"/><path fill="#AEF4DB" d="M158.146 67.057a9.215 9.215 0 0 1-2.191-5.976 9.265 9.265 0 0 1 5.648-8.536 9.18 9.18 0 0 0-3.599-.737 9.27 9.27 0 0 0-9.276 9.273 9.22 9.22 0 0 0 2.19 5.976h-.006l7.802 8.785h7.228l-7.802-8.785h.006z"/><path fill="#B999C1" d="M119.655 121.525c-.947-.257-1.924-.438-2.954-.438-6.251 0-11.325 5.067-11.325 11.319 0 1.675.391 3.262 1.048 4.694h5.908a11.24 11.24 0 0 1-1.048-4.694c0-5.221 3.558-9.575 8.371-10.881z"/><path fill="#AEF4DB" d="M152.699 121.525c-.947-.257-1.924-.438-2.954-.438-6.251 0-11.325 5.067-11.325 11.319 0 1.675.391 3.262 1.048 4.694h5.908a11.24 11.24 0 0 1-1.048-4.694c.001-5.221 3.558-9.575 8.371-10.881z"/><path fill="#B999C1" d="M185.265 121.525c-.947-.257-1.924-.438-2.954-.438-6.251 0-11.319 5.067-11.319 11.319 0 1.675.385 3.262 1.042 4.694h5.908a11.235 11.235 0 0 1-1.042-4.694c0-5.221 3.557-9.575 8.365-10.881z"/><path fill="#AEF4DB" d="M218.688 121.525c-.947-.257-1.924-.438-2.954-.438-6.251 0-11.325 5.067-11.325 11.319 0 1.675.391 3.262 1.048 4.694h5.908a11.24 11.24 0 0 1-1.048-4.694c0-5.221 3.558-9.575 8.371-10.881z"/><g><path fill="#161616" d="M263.424 231.599h-26.296a4.547 4.547 0 0 1 0-9.093h26.296a3.27 3.27 0 0 0 3.268-3.265c0-1.8-1.465-3.262-3.268-3.262H36.57a3.264 3.264 0 0 0 0 6.527h180.413a4.547 4.547 0 0 1 0 9.093H36.57c-6.814 0-12.355-5.544-12.355-12.358 0-6.814 5.541-12.355 12.355-12.355h226.855c6.817 0 12.361 5.541 12.361 12.355-.001 6.814-5.545 12.358-12.362 12.358zM184.033 275.785h-68.072a4.548 4.548 0 0 1-4.547-4.546c0-8.862 7.21-16.069 16.072-16.069h45.02c8.862 0 16.072 7.207 16.072 16.069a4.545 4.545 0 0 1-4.545 4.546zm-61.836-9.093h55.599a6.97 6.97 0 0 0-5.289-2.43h-45.02a6.97 6.97 0 0 0-5.29 2.43z"/><path fill="#161616" d="M163.296 264.262h-26.592a4.546 4.546 0 0 1-3.783-7.068c8.912-13.367 5.452-28.963 5.414-29.117a4.546 4.546 0 0 1 4.431-5.571h14.468c1.385 0 2.696.63 3.558 1.717a4.545 4.545 0 0 1 .876 3.839c-.036.157-3.431 15.874 5.411 29.132a4.546 4.546 0 0 1-3.783 7.068zm-18.994-9.093h11.396c-3.881-9.111-4.082-18.041-3.661-23.57h-4.073c.42 5.529.219 14.46-3.662 23.57zM232.404 187.917c-14.575 0-21.427-3.709-26.932-6.689-3.747-2.031-6.459-3.499-11.138-3.499-4.609 0-8.234 1.622-12.825 3.673-6.488 2.904-14.566 6.515-28.122 6.515-12.731 0-20.107-2.844-26.616-5.355-5.233-2.019-9.756-3.762-16.623-3.762-6.269 0-9.602 1.486-13.82 3.365-5.745 2.563-12.899 5.751-28.543 5.751-10.304 0-18.041-2.525-23.002-7.506-5.106-5.129-5.227-10.895-5.224-11.538v-21.385c0-8.235 6.701-14.933 14.936-14.933h191.004c8.234 0 14.936 6.698 14.936 14.933v21.406c0 16.762-14.169 19.024-28.031 19.024zm-38.07-19.281c6.985 0 11.298 2.335 15.469 4.594 5.079 2.75 10.33 5.594 22.602 5.594 18.938 0 18.938-5.275 18.938-9.931v-21.406c0-3.22-2.622-5.84-5.843-5.84H54.495a5.85 5.85 0 0 0-5.843 5.84v21.406c.038.953.912 9.931 19.133 9.931 13.71 0 19.367-2.522 24.84-4.964 4.582-2.042 9.318-4.153 17.523-4.153 8.56 0 14.323 2.223 19.897 4.372 6.047 2.332 12.301 4.745 23.342 4.745 11.615 0 18.121-2.91 24.41-5.722 5.138-2.297 9.989-4.466 16.537-4.466z"/><path fill="#161616" d="M255.888 215.98H44.106a4.547 4.547 0 0 1-4.546-4.546v-42.561a4.547 4.547 0 0 1 4.546-4.526h.009a4.548 4.548 0 0 1 4.538 4.546v.024c.038.941.924 9.907 19.133 9.907 13.71 0 19.367-2.522 24.84-4.964 4.582-2.042 9.318-4.153 17.523-4.153 8.56 0 14.323 2.223 19.897 4.372 6.047 2.332 12.301 4.745 23.342 4.745 11.615 0 18.121-2.91 24.41-5.722 5.138-2.297 9.99-4.467 16.537-4.467 6.985 0 11.298 2.335 15.469 4.594 5.079 2.75 10.33 5.594 22.602 5.594 18.938 0 18.938-5.275 18.938-9.931a4.547 4.547 0 0 1 9.093 0v42.54a4.552 4.552 0 0 1-4.549 4.548zm-207.236-9.093h202.69v-22.06c-5.242 2.546-12.127 3.09-18.938 3.09-14.575 0-21.427-3.709-26.932-6.689-3.747-2.031-6.459-3.499-11.138-3.499-4.609 0-8.234 1.622-12.825 3.673-6.488 2.904-14.566 6.515-28.122 6.515-12.731 0-20.107-2.844-26.616-5.355-5.233-2.019-9.756-3.762-16.623-3.762-6.269 0-9.602 1.486-13.82 3.365-5.745 2.563-12.899 5.751-28.543 5.751-7.93 0-14.341-1.495-19.133-4.458v23.429zM238.733 141.647H61.261a4.547 4.547 0 0 1-4.546-4.546V83.917c0-6.959 5.662-12.621 12.621-12.621h9.555a4.547 4.547 0 0 1 0 9.092h-9.555a3.533 3.533 0 0 0-3.528 3.528v48.637h168.378V83.917a3.53 3.53 0 0 0-3.522-3.528H99.036a4.547 4.547 0 0 1 0-9.092h131.628c6.956 0 12.615 5.662 12.615 12.621v53.184a4.547 4.547 0 0 1-4.546 4.545z"/><path fill="#161616" d="M94.407 141.647H73.853a4.546 4.546 0 0 1-4.132-2.652 15.666 15.666 0 0 1-1.456-6.589c0-8.75 7.116-15.865 15.865-15.865 8.753 0 15.871 7.116 15.871 15.865a15.69 15.69 0 0 1-1.462 6.589 4.546 4.546 0 0 1-4.132 2.652zm-17.047-9.093h13.545c.003-.05.003-.098.003-.148 0-3.735-3.04-6.772-6.778-6.772a6.779 6.779 0 0 0-6.77 6.92zM126.984 141.647H106.43a4.546 4.546 0 0 1-4.132-2.652c-.974-2.122-1.468-4.339-1.468-6.589 0-8.75 7.122-15.865 15.877-15.865 8.752 0 15.871 7.116 15.871 15.865a15.69 15.69 0 0 1-1.462 6.589 4.546 4.546 0 0 1-4.132 2.652zm-17.058-9.093h13.557c.003-.05.003-.098.003-.148 0-3.735-3.04-6.772-6.778-6.772-3.741 0-6.784 3.037-6.784 6.772-.001.05-.001.098.002.148zM160.022 141.647h-20.554a4.546 4.546 0 0 1-4.132-2.652 15.684 15.684 0 0 1-1.462-6.589c0-8.75 7.119-15.865 15.871-15.865s15.871 7.116 15.871 15.865a15.69 15.69 0 0 1-1.462 6.589 4.546 4.546 0 0 1-4.132 2.652zm-17.052-9.093h13.551c.003-.05.003-.098.003-.148 0-3.735-3.04-6.772-6.778-6.772-3.738 0-6.778 3.037-6.778 6.772-.001.05-.001.098.002.148zM192.593 141.647H172.04a4.546 4.546 0 0 1-4.132-2.652 15.684 15.684 0 0 1-1.462-6.589c0-8.75 7.119-15.865 15.871-15.865s15.871 7.116 15.871 15.865a15.69 15.69 0 0 1-1.462 6.589 4.549 4.549 0 0 1-4.133 2.652zm-17.052-9.093h13.551c.003-.05.003-.098.003-.148 0-3.735-3.04-6.772-6.778-6.772-3.738 0-6.778 3.037-6.778 6.772-.001.05-.001.098.002.148zM226.011 141.647h-20.554a4.546 4.546 0 0 1-4.132-2.652 15.684 15.684 0 0 1-1.462-6.589c0-8.75 7.119-15.865 15.871-15.865s15.871 7.116 15.871 15.865a15.69 15.69 0 0 1-1.462 6.589 4.546 4.546 0 0 1-4.132 2.652zm-17.052-9.093h13.55c.003-.05.003-.098.003-.148 0-3.735-3.04-6.772-6.778-6.772-3.738 0-6.778 3.037-6.778 6.772 0 .05 0 .098.003.148zM101.203 114.072c-8.054 0-16.283-1.921-25.156-5.875-4.443-1.977-9.439-3.022-14.853-3.105a4.548 4.548 0 0 1-4.478-4.546v-12.13c0-1.216.488-2.38 1.353-3.235s1.971-1.362 3.253-1.311c8.374.106 16.235 1.77 23.363 4.946 14.554 6.488 22.051 4.185 35.67.009 1.785-.548 3.626-1.11 5.535-1.669 18.227-5.319 35.8-4.771 55.303 1.729 13.814 4.612 28.119.34 34.986-1.711 7.015-2.09 14.755-3.345 22.386-3.626 1.231-.065 2.433.414 3.324 1.27a4.553 4.553 0 0 1 1.391 3.274v12.133a4.547 4.547 0 0 1-4.351 4.543c-5.722.243-11.488 1.19-16.679 2.741-8.306 2.469-27.622 8.22-47.77 1.504-15.421-5.135-28.569-5.597-42.644-1.489-1.687.494-3.312.992-4.899 1.477l-.37.113c-8.318 2.549-16.177 4.958-25.364 4.958zM65.808 96.257c4.967.503 9.638 1.72 13.938 3.635 7.794 3.472 14.61 5.088 21.456 5.088 7.823 0 14.72-2.113 22.703-4.561l.37-.115a407.668 407.668 0 0 1 5.011-1.507c15.957-4.662 30.783-4.177 48.069 1.589 17.419 5.805 34.818.634 42.247-1.578 4.612-1.376 9.575-2.332 14.584-2.821v-3.046c-5.304.497-10.555 1.498-15.406 2.945-7.767 2.318-23.922 7.142-40.465 1.622-17.665-5.887-33.515-6.402-49.878-1.625a364.784 364.784 0 0 0-5.414 1.634c-14.154 4.339-24.387 7.474-42.04-.397-4.683-2.087-9.771-3.395-15.175-3.913v3.05zM154.99 80.388h-17.132a4.543 4.543 0 0 1-3.398-1.527l-18.997-21.389c-3.14-3.744-4.825-8.356-4.825-13.089 0-11.12 9.046-20.169 20.163-20.169a20.094 20.094 0 0 1 15.622 7.412 20.098 20.098 0 0 1 15.623-7.412c11.117 0 20.163 9.049 20.163 20.169a20.1 20.1 0 0 1-2.528 9.703 4.54 4.54 0 0 1-3.558 2.323c-2.335.216-4.179 2.134-4.292 4.458a4.544 4.544 0 0 1-6.214 4.008 4.535 4.535 0 0 1-2.904-4.023 4.712 4.712 0 0 0-4.712-4.499 4.733 4.733 0 0 0-4.73 4.727c0 1.424.607 2.439 1.116 3.04l5.861 6.613a4.545 4.545 0 0 1-.003 6.035l-1.859 2.093a4.534 4.534 0 0 1-3.396 1.527zm-15.089-9.092h8.693l-1.083-1.223c-2.175-2.578-3.33-5.739-3.33-8.992 0-7.619 6.201-13.82 13.823-13.82 3.584 0 6.855 1.362 9.312 3.602a13.894 13.894 0 0 1 5.207-2.96c.397-1.137.595-2.315.595-3.519 0-6.106-4.967-11.076-11.07-11.076a11.048 11.048 0 0 0-11.046 10.558 4.554 4.554 0 0 1-2.06 3.602 4.558 4.558 0 0 1-3.963.485 4.554 4.554 0 0 1-3.129-4.102 11.05 11.05 0 0 0-11.046-10.543c-6.103 0-11.07 4.97-11.07 11.076 0 2.637.906 5.109 2.617 7.145l17.55 19.767z"/><path fill="#161616" d="M175.84 80.388h-17.126c-1.3 0-2.537-.556-3.398-1.527l-7.802-8.785c-2.178-2.581-3.333-5.742-3.333-8.995 0-7.619 6.201-13.82 13.823-13.82 3.564 0 6.82 1.347 9.273 3.567a13.78 13.78 0 0 1 9.273-3.567c7.622 0 13.823 6.201 13.823 13.82 0 3.259-1.16 6.423-3.265 8.912l-7.867 8.868a4.552 4.552 0 0 1-3.401 1.527zm-15.084-9.092h13.041l6.447-7.258a4.643 4.643 0 0 0 1.036-2.957 4.733 4.733 0 0 0-4.73-4.727c-2.528 0-4.6 1.98-4.718 4.508a4.546 4.546 0 0 1-6.214 4.014 4.535 4.535 0 0 1-2.904-4.023 4.712 4.712 0 0 0-4.712-4.499 4.733 4.733 0 0 0-4.73 4.727c0 1.424.607 2.439 1.116 3.04l6.368 7.175z"/></g></svg>