<svg xmlns="http://www.w3.org/2000/svg" viewBox="0 0 48 48"><g data-name="22-cake"><path d="M20.73 37.01A2.032 2.032 0 0 0 21 36v-4.55a7.657 7.657 0 0 0 1.64 1A5.48 5.48 0 0 0 25 33v-6l-15-6v4c.61.61.9 1.97 2.49 2.71a4.238 4.238 0 0 0 .51.21V31a2 2 0 0 0 4 0v5a2 2 0 0 0 3.73 1.01z" style="fill:#ff808c"/><path d="M22.64 31.45A5.48 5.48 0 0 0 25 32v1a5.48 5.48 0 0 1-2.36-.55 7.657 7.657 0 0 1-1.64-1v-1a7.657 7.657 0 0 0 1.64 1zM19 37a1.991 1.991 0 0 0 2-2v1a1.991 1.991 0 0 1-2 2 2.006 2.006 0 0 1-2-2v-1a2.006 2.006 0 0 0 2 2zM15 32a2.006 2.006 0 0 0 2-2v1a2 2 0 0 1-4 0v-1a2.006 2.006 0 0 0 2 2zM12.49 26.71a4.238 4.238 0 0 0 .51.21v1a4.238 4.238 0 0 1-.51-.21c-1.59-.74-1.88-2.1-2.49-2.71v-1c.61.61.9 1.97 2.49 2.71z" style="fill:#c78ff5"/><path d="M25 27v6a6.127 6.127 0 0 0 1.79-.55c2.53-1.19 2.11-2.09 4.65-3.28s2.96-.27 5.5-1.46c2-.93 1.93-1.89 3.06-2.71v-4z" style="fill:#ffa8ad"/><path style="fill:#ffde91" d="M10 36v4l15 7v-4l-15-7z"/><path d="M10 32v4l15 7v-4l-4.27-1.99A2 2 0 0 1 17 36v-.73z" style="fill:#ff468c"/><path d="M10 25v7l7 3.27V31a2 2 0 0 1-4 0v-3.08a4.238 4.238 0 0 1-.51-.21c-1.59-.74-1.88-2.1-2.49-2.71z" style="fill:#ffde91"/><path d="M18.13 12.64a5.168 5.168 0 0 0-.13 1.19 10.225 10.225 0 0 0 1.75 5.27C20.83 20.75 22.34 22 24 22c2.22 0 4.16-2.23 5.2-4.67a9.242 9.242 0 0 0 .8-3.5 5.879 5.879 0 0 0-5-5.75l-.1-.11A6.846 6.846 0 0 1 23.93 9a6.568 6.568 0 0 1-2.39-.48 5.825 5.825 0 0 0-3.41 4.12z" style="fill:#ff468c"/><path d="M15.4 18.69 16.52 21l3.472-1.559A5.278 5.278 0 0 0 24 22c2.22 0 4.16-2.23 5.2-4.67.047-.11.082-.222.126-.333L40 21l-15 6-15-6 5.4-2.314z" style="fill:#ffd7d1"/><path d="m13.48 1 5.061 10.426a5.637 5.637 0 0 0-.411 1.214 5.168 5.168 0 0 0-.13 1.19 9.205 9.205 0 0 0 .766 3.413 11 11 0 0 0 .984 1.857c.077.117.161.228.242.341L16.52 21l-1.12-2.31L8 3.45z" style="fill:#f2d1a5"/><path d="M20.73 37.01 25 39v-6a5.48 5.48 0 0 1-2.36-.55 7.657 7.657 0 0 1-1.64-1V36a2.032 2.032 0 0 1-.27 1.01z" style="fill:#ffde91"/><path d="M12.49 27.71a4.238 4.238 0 0 0 .51.21v1a4.238 4.238 0 0 1-.51-.21c-1.59-.74-1.88-2.1-2.49-2.71v-1c.61.61.9 1.97 2.49 2.71zM15 34a2.006 2.006 0 0 1-2-2v-1a2 2 0 0 0 4 0v1a2.006 2.006 0 0 1-2 2zM21 36v1c0 .044-.014.084-.017.128l-.253-.118A2.032 2.032 0 0 0 21 36zM21 32.45v-1a7.657 7.657 0 0 0 1.64 1A5.48 5.48 0 0 0 25 33v1a5.48 5.48 0 0 1-2.36-.55 7.657 7.657 0 0 1-1.64-1z" style="fill:#edc472"/><path d="M21.54 8.52a6.568 6.568 0 0 0 2.39.48 5.21 5.21 0 0 1-1.9-4.47H22A5.971 5.971 0 0 0 18 3a5.51 5.51 0 0 0 3.54 5.52z" style="fill:#78b22a"/><path d="M22.03 4.53A5.21 5.21 0 0 0 23.93 9a6.846 6.846 0 0 0 .97-1.03c1.35-1.8 1.9-4.5-.97-6.97a5.273 5.273 0 0 0-1.9 3.53z" style="fill:#bdf052"/><path style="fill:#fcf2b6" d="M25 43v4l15-7v-4l-15 7z"/><path style="fill:#ff8fb8" d="M25 39v4l15-7v-4l-15 7z"/><path d="M25 33v6l15-7v-7c-1.13.82-1.06 1.78-3.06 2.71-2.54 1.19-2.96.28-5.5 1.46s-2.12 2.09-4.65 3.28A6.127 6.127 0 0 1 25 33z" style="fill:#fcf2b6"/><path d="M31.44 28.17c2.54-1.18 2.96-.27 5.5-1.46 2-.93 1.93-1.89 3.06-2.71v1c-1.13.82-1.06 1.78-3.06 2.71-2.54 1.19-2.96.28-5.5 1.46s-2.12 2.09-4.65 3.28A6.127 6.127 0 0 1 25 33v-1a6.127 6.127 0 0 0 1.79-.55c2.53-1.19 2.11-2.09 4.65-3.28z" style="fill:#ebccff"/><path d="M31.44 29.17c2.54-1.18 2.96-.27 5.5-1.46 2-.93 1.93-1.89 3.06-2.71v2c-1.13.82-1.06 1.78-3.06 2.71-2.54 1.19-2.96.28-5.5 1.46s-2.12 2.09-4.65 3.28A6.127 6.127 0 0 1 25 35v-2a6.127 6.127 0 0 0 1.79-.55c2.53-1.19 2.11-2.09 4.65-3.28z" style="fill:#ffde91"/><path d="M24.9 7.97a6.824 6.824 0 0 1-.9.963V1.065c2.786 2.453 2.238 5.121.9 6.905z" style="fill:#d7fa78"/><path d="M18.13 12.64a5.75 5.75 0 0 1 2.09-3.326c-.03.109-.067.215-.09.326a5.168 5.168 0 0 0-.13 1.19 10.225 10.225 0 0 0 1.75 5.27C22.83 17.75 24.34 19 26 19a4.521 4.521 0 0 0 3.122-1.507C28.066 19.868 26.17 22 24 22c-1.66 0-3.17-1.25-4.25-2.9A10.225 10.225 0 0 1 18 13.83a5.168 5.168 0 0 1 .13-1.19z" style="fill:#d72878"/><path d="M19.412 10.083A5.957 5.957 0 0 1 21.54 8.52a6.568 6.568 0 0 0 2.39.48 6.846 6.846 0 0 0 .97-1.03l.1.11a5.879 5.879 0 0 1 5 5.75 9.15 9.15 0 0 1-.75 3.368 11.841 11.841 0 0 0-9.838-7.115z" style="fill:#ff85b3"/><ellipse cx="26.75" cy="10.1" rx=".413" ry=".574" transform="rotate(-45.02 26.75 10.1)" style="fill:#f6fafd"/><ellipse cx="26.75" cy="12.1" rx=".413" ry=".574" transform="rotate(-45.02 26.75 12.1)" style="fill:#fdffbf"/><ellipse cx="20.75" cy="10.1" rx=".574" ry=".413" transform="rotate(-44.98 20.75 10.1)" style="fill:#fdffbf"/><ellipse cx="20.75" cy="12.1" rx=".574" ry=".413" transform="rotate(-44.98 20.75 12.1)" style="fill:#fdffbf"/><ellipse cx="24.75" cy="11.1" rx=".413" ry=".574" style="fill:#fdffbf"/><ellipse cx="24.75" cy="13.1" rx=".413" ry=".574" style="fill:#fdffbf"/><ellipse cx="22.75" cy="11.1" rx=".413" ry=".574" style="fill:#fdffbf"/><ellipse cx="22.75" cy="13.1" rx=".413" ry=".574" style="fill:#fdffbf"/><ellipse cx="26.75" cy="14.1" rx=".413" ry=".574" transform="rotate(-45.02 26.75 14.1)" style="fill:#fdffbf"/><ellipse cx="28.75" cy="13.1" rx=".413" ry=".574" transform="rotate(-45.02 28.75 13.1)" style="fill:#fdffbf"/><ellipse cx="20.75" cy="14.1" rx=".574" ry=".413" transform="rotate(-44.98 20.75 14.1)" style="fill:#fdffbf"/><ellipse cx="18.75" cy="13.1" rx=".574" ry=".413" transform="rotate(-44.98 18.75 13.1)" style="fill:#fdffbf"/><ellipse cx="24.75" cy="15.1" rx=".413" ry=".574" style="fill:#fdffbf"/><ellipse cx="22.75" cy="15.1" rx=".413" ry=".574" style="fill:#fdffbf"/><ellipse cx="26.75" cy="16.1" rx=".413" ry=".574" transform="rotate(-45.02 26.75 16.1)" style="fill:#fdffbf"/><ellipse cx="28.75" cy="15.1" rx=".413" ry=".574" transform="rotate(-45.02 28.75 15.1)" style="fill:#fdffbf"/><ellipse cx="20.75" cy="16.1" rx=".574" ry=".413" transform="rotate(-44.98 20.75 16.1)" style="fill:#fdffbf"/><ellipse cx="18.75" cy="15.1" rx=".574" ry=".413" transform="rotate(-44.98 18.75 15.1)" style="fill:#fdffbf"/><ellipse cx="24.75" cy="17.1" rx=".413" ry=".574" style="fill:#fdffbf"/><ellipse cx="22.75" cy="17.1" rx=".413" ry=".574" style="fill:#fdffbf"/><ellipse cx="26.75" cy="18.1" rx=".413" ry=".574" transform="rotate(-45.02 26.75 18.1)" style="fill:#fdffbf"/><ellipse cx="20.75" cy="18.1" rx=".574" ry=".413" transform="rotate(-44.98 20.75 18.1)" style="fill:#fdffbf"/><ellipse cx="24.75" cy="19.1" rx=".413" ry=".574" style="fill:#fdffbf"/><ellipse cx="22.75" cy="19.1" rx=".413" ry=".574" style="fill:#fdffbf"/><path d="m15.515 12.489-4.9-10.208L13.48 1l4.32 8.908a5.829 5.829 0 0 0-2.285 2.581z" style="fill:#ffe4c2"/><path d="M15 14.83a5.168 5.168 0 0 1 .13-1.19 5.581 5.581 0 0 1 .385-1.151l3.539 7.373-1.875.842c-.149-.194-.293-.4-.429-.6A10.225 10.225 0 0 1 15 14.83z" style="fill:#f2bb88"/><path d="M18.54 11.427a5.758 5.758 0 0 0-.237.587 5.455 5.455 0 0 0-.173.626 5.168 5.168 0 0 0-.13 1.19 6.737 6.737 0 0 0 .047.736c.007.068.019.137.028.206.028.2.063.4.106.606.014.063.026.125.041.189a10.749 10.749 0 0 0 .544 1.676c.121.29.257.576.4.858l.086.165c.154.285.316.565.494.833.077.117.161.228.242.341l-.938.421-3.539-7.373a5.829 5.829 0 0 1 2.289-2.58l.737 1.518z" style="fill:#e3a76f"/><path d="M15.4 18.686 16.52 21l3.472-1.559A5.278 5.278 0 0 0 24 22a3.416 3.416 0 0 0 .646-.079A4.949 4.949 0 0 1 21 24a5.218 5.218 0 0 1-3.947-2.474l-.12-.059-2.716 1.22-1.053-.421-.764-1.576-.287-.591z" style="fill:#fac2be"/><path style="fill:#ebccff" d="m25 40 15-7v2l-15 7v-2z"/><path d="M19 38a1.988 1.988 0 0 0 1.053-.309L25 40v2l-15-7v-2l7.028 3.28A2 2 0 0 0 19 38z" style="fill:#c78ff5"/><path d="M19 38a2.021 2.021 0 0 0 1.73-.99l.253.118a2.042 2.042 0 0 1-.253.882A2 2 0 0 1 17 37v-1a2.006 2.006 0 0 0 2 2z" style="fill:#d72878"/><ellipse cx="25.254" cy="23.5" rx=".413" ry=".574" transform="rotate(-45.02 25.254 23.5)" style="fill:#fff3c1"/><ellipse cx="31.254" cy="38.5" rx=".574" ry=".413" transform="rotate(-45.02 31.254 38.5)" style="fill:#d261e8"/><ellipse cx="37.254" cy="35.5" rx=".413" ry=".574" transform="rotate(-45.02 37.253 35.5)" style="fill:#d261e8"/><ellipse cx="35.254" cy="36.5" rx=".413" ry=".574" transform="rotate(-45.02 35.254 36.5)" style="fill:#fff3c1"/><ellipse cx="14.254" cy="36.5" rx=".413" ry=".574" transform="rotate(-45.02 14.254 36.5)" style="fill:#fff3c1"/><ellipse cx="29.254" cy="38.5" rx=".413" ry=".574" style="fill:#d261e8"/><ellipse cx="13.254" cy="35.5" rx=".413" ry=".574" style="fill:#ff5f96"/><ellipse cx="16.254" cy="36.5" rx=".413" ry=".574" style="fill:#8f4cd6"/><ellipse cx="23.254" cy="40.5" rx=".574" ry=".413" transform="rotate(-45.02 23.254 40.5)" style="fill:#7f2d87"/><ellipse cx="11.254" cy="34.5" rx=".574" ry=".413" transform="rotate(-45.02 11.254 34.5)" style="fill:#7f2d87"/><ellipse cx="27.254" cy="40.5" rx=".574" ry=".413" transform="rotate(-45.02 27.253 40.5)" style="fill:#d261e8"/><ellipse cx="33.254" cy="37.5" rx=".413" ry=".574" style="fill:#a7e340"/><ellipse cx="21.254" cy="39.5" rx=".413" ry=".574" style="fill:#a7e340"/><ellipse cx="38.254" cy="34.5" rx=".413" ry=".574" style="fill:#fff04a"/><ellipse cx="30" cy="21" rx="1.148" ry=".825" transform="rotate(-44.98 30 21)" style="fill:#ff8fb8"/><ellipse cx="18" cy="22" rx=".825" ry="1.148" transform="rotate(-44.98 18 22)" style="fill:#d261e8"/><ellipse cx="24" cy="25" rx=".825" ry="1.148" transform="rotate(-44.98 24 25)" style="fill:#e0b8ff"/><path d="m32.273 21.711-.215-.323a.253.253 0 0 1-.012-.256.248.248 0 0 1 .219-.132h.342l.18-.361a.257.257 0 0 1 .443 0l.18.361h.342a.249.249 0 0 1 .206.388l-.214.323.226.416a.249.249 0 0 1-.3.356l-.666-.223-.665.223a.236.236 0 0 1-.078.013.245.245 0 0 1-.19-.09.248.248 0 0 1-.028-.279z" style="fill:#a7e340"/><path d="m27.273 23.711-.215-.323a.253.253 0 0 1-.012-.256.248.248 0 0 1 .219-.132h.342l.18-.361a.257.257 0 0 1 .443 0l.18.361h.342a.249.249 0 0 1 .206.388l-.214.323.226.416a.249.249 0 0 1-.3.356l-.666-.223-.665.223a.236.236 0 0 1-.078.013.245.245 0 0 1-.19-.09.248.248 0 0 1-.028-.279z" style="fill:#ff5f96"/><ellipse cx="35.254" cy="21.5" rx=".574" ry=".413" transform="rotate(-45.02 35.253 21.5)" style="fill:#d261e8"/><path style="fill:#ffdecf" d="m25 44 15-7v1l-15 7v-1z"/><path style="fill:#ffbeaa" d="M25 45v-1l-15-7v1l15 7z"/><ellipse cx="28" cy="12" rx=".825" ry="1.148" transform="rotate(-44.98 28 12)" style="fill:#f6fafd"/><ellipse cx="25.254" cy="4.5" rx=".413" ry=".574" transform="rotate(-44.98 25.254 4.5)" style="fill:#f6fafd"/><ellipse cx="18.254" cy="35.5" rx=".413" ry=".574" style="fill:#f6fafd"/><ellipse cx="14.254" cy="30.5" rx=".413" ry=".574" style="fill:#f6fafd"/><path d="M40.561 20.172a.967.967 0 0 0-.21-.107l-8-3-.7 1.874 5.584 2.093L25 25.923l-7.129-2.852-.742 1.858 7.5 3a1 1 0 0 0 .742 0L39 22.477v2.055a6.438 6.438 0 0 0-.753.859 3.963 3.963 0 0 1-1.733 1.416 6.188 6.188 0 0 1-2.419.64A9.1 9.1 0 0 0 28.41 30.1a6.207 6.207 0 0 1-2.047 1.441 4.992 4.992 0 0 1-1.407.459 4.394 4.394 0 0 1-1.9-.456 6.482 6.482 0 0 1-1.424-.866 1 1 0 0 0-1.632.769V36a1 1 0 0 1-2 0v-5a1 1 0 0 0-2 0 1 1 0 0 1-2 0v-3.075a1 1 0 0 0-.633-.93l-.116-.046c-.108-.042-.217-.083-.343-.142a3.384 3.384 0 0 1-1.514-1.558c-.121-.2-.252-.4-.394-.6v-2.172l3.629 1.452.742-1.858-2.759-1.1 2.3-.986.706 1.455a1 1 0 0 0 1.309.476l2.773-1.244A5.821 5.821 0 0 0 24 23c3.994 0 7-5.561 7-9.167a6.819 6.819 0 0 0-4.6-6.424 5.769 5.769 0 0 0 .6-2.493A6.109 6.109 0 0 0 24.58.242a1 1 0 0 0-1.3 0 6.564 6.564 0 0 0-1.88 2.643A6.984 6.984 0 0 0 18 2a1 1 0 0 0-1 1 6.653 6.653 0 0 0 2.566 5.56 6.911 6.911 0 0 0-.886.857L14.38.563a1 1 0 0 0-1.308-.476l-5.48 2.454a1 1 0 0 0-.492 1.35l1.237 2.546 1.8-.874-.786-1.618 3.654-1.636 4.432 9.128.027-.013A6.659 6.659 0 0 0 17 13.833 11.038 11.038 0 0 0 18.528 19L17 19.691 11.106 7.564l-1.8.874 4.731 9.743-4.433 1.9a1.043 1.043 0 0 0-.17.086A1 1 0 0 0 9 21v19a1 1 0 0 0 .577.906l15 7a1 1 0 0 0 .846 0l10.715-5-.846-1.812L25 45.9l-14-6.537V37.57l13.577 6.336a1 1 0 0 0 .846 0L39 37.57v1.793l-1.572.734.845 1.812 2.15-1A1 1 0 0 0 41 40V21a1 1 0 0 0-.439-.828zM23.943 2.413A3.754 3.754 0 0 1 25 4.916a4.261 4.261 0 0 1-1.066 2.659A4.094 4.094 0 0 1 23 5a4.1 4.1 0 0 1 .943-2.587zM21 5.01a5.938 5.938 0 0 0 .51 2.39 4.354 4.354 0 0 1-2.416-3.28A4.993 4.993 0 0 1 21 5.01zM23.906 10H24v-.013a.988.988 0 0 0 .58-.229 7.425 7.425 0 0 0 .615-.6A4.838 4.838 0 0 1 29 13.833c0 2.7-2.337 7.167-5 7.167s-5-4.467-5-7.167a4.827 4.827 0 0 1 2.492-4.182l-.047-.084a7.75 7.75 0 0 0 2.461.433zM11 27.934a4.655 4.655 0 0 0 1 .656V31a3 3 0 0 0 4 2.829V36a2.988 2.988 0 0 0 .862 2.1L11 35.363zM25 41.9l-6.264-2.923c.088.008.174.027.264.027a3 3 0 0 0 3-3v-2.752l.213.1a6.4 6.4 0 0 0 2.743.648 1.135 1.135 0 0 0 .164-.006 6.814 6.814 0 0 0 2.089-.639 8.154 8.154 0 0 0 2.606-1.833 7.1 7.1 0 0 1 4.466-2.082 8.156 8.156 0 0 0 3.078-.82A6.276 6.276 0 0 0 39 27.554v3.809L25 37.9l-2.576-1.2-.846 1.813 3 1.4a1 1 0 0 0 .846 0L39 33.57v1.793z"/><path d="M22 11h2v2h-2zM22 16h2v2h-2zM25 13h2v2h-2z"/></g></svg>