<svg viewBox="0 0 64 64" xmlns="http://www.w3.org/2000/svg" xml:space="preserve" style="fill-rule:evenodd;clip-rule:evenodd;stroke-linecap:round;stroke-linejoin:round;stroke-miterlimit:2"><path style="fill:none" d="M0 0h64v64H0z"/><path d="M47.541 38.773H16.459l4.104 18.873h22.874l4.104-18.873zM45 23.773a7.5 7.5 0 0 1 7.5 7.5s0 0 0 0a7.5 7.5 0 0 1-7.5 7.5" style="fill:none;stroke:#444f58;stroke-width:2px"/><path d="M19 38.773a7.5 7.5 0 0 1-7.5-7.5s0 0 0 0a7.5 7.5 0 0 1 7.5-7.5h.614c.742-6.179 6.008-10.975 12.386-10.975 2.513 0 4.854.744 6.813 2.025M44.386 23.773c0 2.398-.142 4.244-.567 5.5M25 24v1" style="fill:none;stroke:#444f58;stroke-width:2px"/><circle cx="44.102" cy="18.484" r="5.289" style="fill:none;stroke:#444f58;stroke-width:2px"/><path d="M34.425 53.83h5.581l1.419-6.79M46.052 13.148s.714-1.785 2.231-2.945" style="fill:none;stroke:#444f58;stroke-width:2px"/></svg>