<svg xmlns="http://www.w3.org/2000/svg" xml:space="preserve" width="655.359" height="655.359" style="shape-rendering:geometricPrecision;text-rendering:geometricPrecision;image-rendering:optimizeQuality;fill-rule:evenodd;clip-rule:evenodd" viewBox="0 0 6.827 6.827"><defs><style>.fil3{fill:#333}.fil0{fill:#e7e9ee}.fil4{fill:#ffd3b3}.fil2{fill:#333;fill-rule:nonzero}</style></defs><g id="Layer_x0020_1"><path class="fil0" d="M1.721 3.568a.08.08 0 0 1 .05.033.63.63 0 0 1-.05-.033zm2.02-.759a.581.581 0 0 1-.831-.177.588.588 0 0 1-.437.197.582.582 0 0 1-.57-.712c-.1.065-.194.144-.279.24a1.54 1.54 0 0 0-.242.367.782.782 0 0 0-.076.339.785.785 0 0 0 .892.78l-.01-.074a.08.08 0 0 1 .158-.021l.008.058a.79.79 0 0 0 .358-.255.787.787 0 0 0 .236.27l-.002-.034a.08.08 0 0 1 .16-.01l.008.135a.784.784 0 0 0 .585 0l.01-.135a.08.08 0 0 1 .159.01l-.003.033a.793.793 0 0 0 .242-.28.79.79 0 0 0 .353.261l.007-.053a.08.08 0 0 1 .158.021l-.01.072a.785.785 0 0 0 .675-.221.785.785 0 0 0 .23-.557.972.972 0 0 0-.16-.55 1.223 1.223 0 0 0-.43-.383.811.811 0 0 1 .003.189.582.582 0 0 1-1.022.307.587.587 0 0 1-.17.183zm.919.657a.106.106 0 1 1 .21 0 .106.106 0 0 1-.21 0zm-1.583-.422a.106.106 0 1 1-.211 0 .106.106 0 0 1 .21 0zm-.634.106a.106.106 0 1 1 0 .21.106.106 0 0 1 0-.21zm2.006-.106a.106.106 0 1 1 .21 0 .106.106 0 0 1-.21 0zm.527 0a.106.106 0 1 1 .211 0 .106.106 0 0 1-.21 0zM3.71 3.15a.106.106 0 1 1 0 .21.106.106 0 0 1 0-.21zm-.528.21a.106.106 0 1 1 0 .212.106.106 0 0 1 0-.211zm-1.266-.105a.106.106 0 1 1 0 .211.106.106 0 0 1 0-.211zm.105-.422a.106.106 0 1 1 0 .211.106.106 0 0 1 0-.211z"/><path d="M3.019 1.424zm.394.54a.553.553 0 0 0 .393-.948.553.553 0 0 0-.948.392.557.557 0 0 0 .163.393c.1.1.24.162.392.162z" style="fill:#f45a52"/><path class="fil2" d="M5.266 3.615a.08.08 0 0 0-.158-.02l-.257 2.038c-.406.12-.905.18-1.405.18s-1-.06-1.405-.18l-.257-1.997a.08.08 0 0 0-.158.02l.263 2.042a.08.08 0 0 0 .056.073l.024-.076-.024.076c.43.135.966.202 1.501.202.533 0 1.067-.067 1.496-.2a.08.08 0 0 0 .06-.068l.264-2.09z"/><path class="fil2" d="M4.892 2.11a.08.08 0 0 0-.074.141c.168.09.312.204.409.35.084.126.134.279.134.462a.626.626 0 0 1-.628.627.627.627 0 0 1-.57-.363l-.072.034.073-.034a.08.08 0 0 0-.152.02.626.626 0 0 1-.605.461.627.627 0 0 1-.603-.452l-.077.022.077-.022a.08.08 0 0 0-.15-.01.628.628 0 0 1-1.128-.553c.062-.13.135-.239.217-.33.082-.092.174-.167.274-.229a.08.08 0 0 0-.084-.136 1.385 1.385 0 0 0-.309.258 1.54 1.54 0 0 0-.242.368.782.782 0 0 0-.076.339.785.785 0 0 0 .788.787.787.787 0 0 0 .618-.3.787.787 0 0 0 1.395-.01.79.79 0 0 0 1.414-.477.972.972 0 0 0-.16-.55 1.248 1.248 0 0 0-.469-.403z"/><path class="fil2" d="M3.021 2.502a.426.426 0 0 0 .745.055.538.538 0 0 0 .057-.133.08.08 0 0 1 .04-.04.078.078 0 0 1 .094.021l.006.007c.016.029.035.067.055.092a.428.428 0 0 0 .336.165.423.423 0 0 0 .424-.424.567.567 0 0 0-.218-.455c-.158-.13-.381-.209-.607-.254A.554.554 0 0 1 2.87 1.52a1.237 1.237 0 0 0-.428.147.887.887 0 0 0-.352.396.42.42 0 0 0 .083.482.423.423 0 0 0 .68-.113.08.08 0 0 1 .144.004c.002.003.02.06.024.066zm.885-1.137c.274.046.556.137.755.302a.72.72 0 0 1 .277.578.582.582 0 0 1-1.027.38.587.587 0 0 1-.834.184.587.587 0 0 1-.167-.177.588.588 0 0 1-.437.197.582.582 0 0 1-.527-.835c.102-.215.244-.363.415-.464.167-.1.36-.152.568-.18a.08.08 0 0 1 .09.082.394.394 0 0 0 .394.371.393.393 0 0 0 .394-.365l.08.005-.08-.006a.08.08 0 0 1 .099-.072z"/><path class="fil2" d="M3.413.853a.553.553 0 0 1 .393.948.553.553 0 0 1-.948-.393.553.553 0 0 1 .555-.555zm.28.276a.394.394 0 0 0-.675.28.394.394 0 0 0 .675.278.394.394 0 0 0 0-.558z"/><circle class="fil3" cx="4.449" cy="2.2" r=".106"/><circle class="fil3" cx="3.921" cy="1.989" r=".106"/><circle class="fil3" cx="3.393" cy="2.411" r=".106"/><circle class="fil3" cx="2.837" cy="2.012" r=".106"/><circle class="fil3" cx="2.373" cy="2.287" r=".106"/><circle class="fil3" cx="4.765" cy="3.466" r=".106"/><circle class="fil3" cx="5.082" cy="3.044" r=".106"/><circle class="fil3" cx="4.554" cy="3.044" r=".106"/><circle class="fil3" cx="3.71" cy="3.255" r=".106"/><circle class="fil3" cx="3.182" cy="3.466" r=".106"/><circle class="fil3" cx="2.971" cy="3.044" r=".106"/><circle class="fil3" cx="2.443" cy="3.255" r=".106"/><circle class="fil3" cx="2.021" cy="2.938" r=".106"/><circle class="fil3" cx="1.916" cy="3.361" r=".106"/><path class="fil2" d="M2.346 3.748a.08.08 0 0 0-.158.021l.283 2.07a.08.08 0 0 0 .159-.022l-.284-2.07zM3.105 3.777a.08.08 0 0 0-.16.01l.139 2.105a.08.08 0 0 0 .16-.01l-.139-2.105zM4.625 3.77a.08.08 0 0 0-.158-.022l-.283 2.07a.08.08 0 0 0 .158.02l.283-2.069zM3.868 3.787a.08.08 0 0 0-.16-.01L3.57 5.882a.08.08 0 0 0 .16.01l.138-2.105z"/><path class="fil0" d="M3.65 2.678a.406.406 0 0 0 .167-.235.08.08 0 0 1 .045-.058.078.078 0 0 1 .095.02l.006.007c.016.029.035.067.055.092a.428.428 0 0 0 .336.165.423.423 0 0 0 .424-.424.567.567 0 0 0-.218-.455c-.158-.13-.381-.209-.607-.254a.554.554 0 0 1-.932.265.553.553 0 0 1-.151-.28 1.236 1.236 0 0 0-.428.146.887.887 0 0 0-.352.396.42.42 0 0 0 .083.482.423.423 0 0 0 .68-.113.08.08 0 0 1 .144.004c.002.003.02.06.024.066a.426.426 0 0 0 .629.176zm.27-.584a.106.106 0 1 1 0-.21.106.106 0 0 1 0 .21zm-1.083-.187a.106.106 0 1 1 0 .21.106.106 0 0 1 0-.21zm-.464.274a.106.106 0 1 1 0 .211.106.106 0 0 1 0-.21zm1.02.124a.106.106 0 1 1 0 .211.106.106 0 0 1 0-.21zm.95-.105a.106.106 0 1 1 .211 0 .106.106 0 0 1-.21 0z"/><path class="fil4" d="m3.865 3.82-.13 1.987c.155-.008.307-.02.456-.04l.269-1.966a.792.792 0 0 1-.353-.26.787.787 0 0 1-.242.28zM4.615 3.841l-.26 1.903c.175-.028.342-.065.496-.11l.236-1.867a.784.784 0 0 1-.472.074zM3.575 5.812l.124-1.9a.785.785 0 0 1-.585 0l.124 1.898a6.23 6.23 0 0 0 .337.002zM3.078 5.802l-.13-1.981a.787.787 0 0 1-.236-.27.79.79 0 0 1-.358.255l.267 1.95c.148.022.301.037.457.046zM2.457 5.73l-.259-1.887a.786.786 0 0 1-.394-.047l.237 1.837c.13.039.27.071.416.097z"/></g><path style="fill:none" d="M0 0h6.827v6.827H0z"/></svg>