<svg viewBox="0 0 64 64" xmlns="http://www.w3.org/2000/svg" xml:space="preserve" style="fill-rule:evenodd;clip-rule:evenodd;stroke-linecap:round;stroke-linejoin:round;stroke-miterlimit:2"><path style="fill:none" d="M0 0h64v64H0z"/><path d="M58.332 25.081c0 3.69-4.032 6.964-10.24 8.996M32 36.239c-4.632 0-8.973-.561-12.697-1.539" style="fill:none;stroke:#444f58;stroke-width:2px"/><path d="M7.375 36.508a3.717 3.717 0 0 1-1.707-3.127v-8.452c0-6.471 11.799-11.725 26.332-11.725 14.533 0 26.332 5.254 26.332 11.725v10.194a2.23 2.23 0 0 1-2.61 2.198l-1.581-.274a4.633 4.633 0 0 0-3.95 1.178v.001a16.027 16.027 0 0 1-11.413 4.307l-6.273-.184a19.748 19.748 0 0 1-6.558-1.326 855.67 855.67 0 0 1-1.576-.61 4.893 4.893 0 0 0-4.831.747l-.001.001a3.903 3.903 0 0 1-4.553.239l-7.611-4.892z" style="fill:none;stroke:#444f58;stroke-width:2px"/><path d="M6.942 36.167c.157.142.327.273.509.39l7.512 4.828a3.94 3.94 0 0 0 4.597-.241l.001-.001a4.846 4.846 0 0 1 4.785-.74l1.505.583a20.36 20.36 0 0 0 6.756 1.366l6.181.182a16.006 16.006 0 0 0 11.395-4.301s0 0 0 0a4.652 4.652 0 0 1 3.969-1.184l1.139.197a2.6 2.6 0 0 0 1.767-.324v2.716c0 6.159-11.228 11.158-25.058 11.158-11.627 0-21.415-3.534-24.238-8.319-.535-.906-.82-1.858-.82-2.839v-3.471zM51.822 22.542l.182 1.82M13.689 26.364l-1.092-1.456" style="fill:none;stroke:#444f58;stroke-width:2px"/></svg>