<svg xmlns="http://www.w3.org/2000/svg" viewBox="0 0 48 48"><g data-name="25-Piece of cake"><path d="M47 46H1a1 1 0 0 1-1-1V24.013a1 1 0 0 1 .533-.9l12-6.334.934 1.769L5.037 23h34.428l3.123-4.685A2.954 2.954 0 0 1 48 19.954V45a1 1 0 0 1-1 1zM2 44h44V19.954a.954.954 0 0 0-1.748-.529l-3.42 5.13A1 1 0 0 1 40 25H2zM20.534 12.56l8.42-4.445.934 1.769-8.42 4.445z"/><path d="M39.032 24.25c-.025-.1-2.587-9.681-10.141-14.4a1 1 0 0 1-.409-1.194l2.107-5.716A2.973 2.973 0 0 1 33.368 1a2.915 2.915 0 0 1 1.735.556c4.648 3.4 11.717 11.3 12.883 18.232l-1.972.332C44.941 13.743 38.3 6.37 33.923 3.17a1.014 1.014 0 0 0-1.457.459L30.635 8.6c7.708 5.262 10.227 14.739 10.334 15.151zM18 12h-2a12.342 12.342 0 0 1 7.606-10.919l.788 1.838A10.46 10.46 0 0 0 18 12z"/><path d="M17.5 22a5.5 5.5 0 1 1 5.5-5.5 5.506 5.506 0 0 1-5.5 5.5zm0-9a3.5 3.5 0 1 0 3.5 3.5 3.5 3.5 0 0 0-3.5-3.5zM26.684 14.949l.633-1.898 3 1-.633 1.897zM24.686 18.067l3-1 .633 1.899-3 1zM29 20h3v2h-3zM31 17h3v2h-3zM41.071 17.372c-1.884-4.711-7.653-9.556-7.712-9.6l1.282-1.536c.253.21 6.217 5.221 8.288 10.4z"/><path d="M17 16h2v2h-2zM1 27h11v2H1zM20 38H10a1 1 0 0 1-.98-1.2c.401-2 2.167-5.8 5.98-5.8s5.579 3.8 5.98 5.8A1 1 0 0 1 20 38zm-8.636-2h7.279c-.5-1.242-1.58-3-3.643-3-2.046 0-3.128 1.76-3.636 3zM44 38H34a1 1 0 0 1-.98-1.2c.401-2 2.167-5.8 5.98-5.8s5.579 3.8 5.98 5.8A1 1 0 0 1 44 38zm-8.636-2h7.279c-.5-1.242-1.58-3-3.643-3-2.046 0-3.128 1.76-3.636 3zM27 38c-3.813 0-5.579-3.8-5.98-5.8A1 1 0 0 1 22 31h10a1 1 0 0 1 .98 1.2c-.401 2-2.168 5.8-5.98 5.8zm-3.643-5c.5 1.242 1.58 3 3.643 3 2.046 0 3.128-1.76 3.636-3zM2 38v-2c2.046 0 3.128-1.76 3.636-3H2v-2h5a1 1 0 0 1 .98 1.2C7.579 34.2 5.812 38 2 38zM14 27h12v2H14zM43.105 30.447C42.4 29.04 40.023 29 40 29H28v-2h12c.147 0 3.633.029 4.9 2.553zM2 40h10v2H2zM14 40h12v2H14zM28 40h16v2H28z"/></g></svg>