<svg xmlns="http://www.w3.org/2000/svg" viewBox="0 0 48 48"><defs><style>.cls-2{fill:#ffdddf}.cls-3{fill:#98d7de}.cls-5{fill:#fac8fc}.cls-7{fill:#f280a0}.cls-8{fill:#f16d8f}.cls-9{fill:#f89bae}.cls-10{fill:#f6fafd}.cls-11{fill:#faaafe}.cls-12{fill:#bceaec}.cls-13{fill:#fabbc3}.cls-15{fill:#e0a5a5}</style></defs><g id="_09-cake" data-name="09-cake"><path d="m34.8 47.093-22-.188a4 4 0 0 1 4.034-3.966l3 .026a2.007 2.007 0 0 0 2.017-1.983l.034-4 4 .035-.035 4a2.007 2.007 0 0 0 1.983 2.018l3 .025a4 4 0 0 1 3.967 4.033z" style="fill:#a499d6"/><path class="cls-2" d="M42.982 26.163a3.005 3.005 0 0 0 3.976 2.864v.17a4 4 0 0 1-4.034 3.965l-2-.017-2-.017-34-.291A4 4 0 0 1 .958 28.8l.026-3a3 3 0 1 0 6 .051 3 3 0 1 0 6 .052 3 3 0 0 0 6 .051 3 3 0 1 0 6 .051 3 3 0 1 0 6 .052 3 3 0 1 0 6 .051 3 3 0 0 0 6 .052zM24.082 14.4l-.056 6.6-10-.085-2-.018-7-.059A4 4 0 0 1 1.061 16.8l.015-1.759a3 3 0 0 0 5.019-2.2 3 3 0 1 0 6 .052 3 3 0 1 0 6 .051 3 3 0 1 0 6 .051z"/><path class="cls-3" d="M33.2 1.078c2.21.019 3.989 1.374 3.975 3.034a2 2 0 1 1-4-.034c-.01 1.11-1.687 1.985-3.017 1.974l-1.79-.015a4.8 4.8 0 0 0 .812-2.593 2.4 2.4 0 0 0-.027-.391l.031-.009c.017-2 3.217-1.973 3.217-1.973zM19.176 3.358a4.553 4.553 0 0 0 .838 2.607l-1.86-.016c-1.33-.011-2.992-.915-2.983-2.025a2.156 2.156 0 0 1-2.017 1.983 2.156 2.156 0 0 1-1.982-2.018C11.186 2.23 12.987.905 15.2.924l.8.007s3.2.027 3.183 2.027l.03.01a2.473 2.473 0 0 0-.037.39z"/><path d="M31.6 12.065a2.619 2.619 0 0 0-2.517 1.978 2.618 2.618 0 0 0-2.483-2.021 2.358 2.358 0 0 0-2.518 2.378l.012-1.4.034-4 19 .162a4 4 0 0 1 3.965 4.038l-.034 4a4 4 0 0 1-4.034 3.966l-19-.163.056-6.6c-.031 3.6 4.532 5.639 4.952 5.643.83.007 5.017-1.957 5.048-5.557-.031 3.6 4.532 5.639 4.952 5.642.83.008 5.017-1.957 5.047-5.557a2.358 2.358 0 0 0-2.48-2.424 2.618 2.618 0 0 0-2.517 1.979 2.62 2.62 0 0 0-2.483-2.022 2.358 2.358 0 0 0-2.52 2.379 2.358 2.358 0 0 0-2.48-2.421z" style="fill:#e7bcbd"/><path class="cls-5" d="m46.991 25.2-.033 3.83a3.005 3.005 0 0 1-3.976-2.864 3 3 0 0 1-6-.052 3 3 0 1 1-6-.051 3 3 0 1 1-6-.052 3 3 0 1 1-6-.051 3 3 0 0 1-6-.051 3 3 0 1 1-6-.052 3 3 0 1 1-6-.051l.008-1a4 4 0 0 1 4.034-3.965l7 .059 2 .018 10 .085 19 .163a4 4 0 0 1 3.967 4.034zM24.128 9l-.034 4a3 3 0 1 1-6-.051 3 3 0 1 1-6-.051 3 3 0 1 1-6-.052 3 3 0 0 1-5.019 2.2L1.1 12.8a4 4 0 0 1 4.029-3.962z"/><rect x=".906" y="33" width="46" height="4" rx="2" ry="2" transform="rotate(.49 23.887 34.977)" style="fill:#bcc0ff"/><path class="cls-7" d="M24.129 9c-.417 0-4.983-2.043-4.952-5.643A2.358 2.358 0 0 1 21.7.979 2.617 2.617 0 0 1 24.18 3a2.617 2.617 0 0 1 2.52-1.978 2.358 2.358 0 0 1 2.479 2.422c-.034 3.599-4.217 5.564-5.05 5.556z"/><path class="cls-8" d="M21.185 2.375a2.369 2.369 0 0 1 .432-1.39 2.343 2.343 0 0 0-2.44 2.373C19.146 6.958 23.712 9 24.129 9a5.5 5.5 0 0 0 2.286-1.027 1.355 1.355 0 0 1-.278.044c-.417-.003-4.983-2.042-4.952-5.642z"/><path class="cls-9" d="M29.176 3.444a2.484 2.484 0 0 0-4.464-1.437 2.355 2.355 0 0 1 2.456 2.419 5.734 5.734 0 0 1-2.761 4.531c1.225-.29 4.741-2.211 4.769-5.513z"/><path class="cls-7" d="M29.034 20.043c-.416 0-4.983-2.043-4.952-5.643a2.358 2.358 0 0 1 2.518-2.378 2.618 2.618 0 0 1 2.483 2.021 2.615 2.615 0 0 1 2.517-1.978 2.357 2.357 0 0 1 2.479 2.421c-.028 3.6-4.211 5.564-5.045 5.557z"/><path class="cls-8" d="M26.091 13.418a2.364 2.364 0 0 1 .432-1.39 2.344 2.344 0 0 0-2.441 2.372c-.03 3.6 4.536 5.639 4.952 5.643a5.5 5.5 0 0 0 2.287-1.026 1.286 1.286 0 0 1-.278.043c-.417-.003-4.983-2.043-4.952-5.642z"/><path class="cls-9" d="M34.082 14.486a2.484 2.484 0 0 0-4.464-1.436 2.352 2.352 0 0 1 2.455 2.419A5.731 5.731 0 0 1 29.312 20c1.226-.291 4.742-2.212 4.77-5.514z"/><path class="cls-7" d="M39.034 20.129c-.417 0-4.983-2.043-4.952-5.643a2.359 2.359 0 0 1 2.52-2.379 2.617 2.617 0 0 1 2.483 2.022A2.616 2.616 0 0 1 41.6 12.15a2.359 2.359 0 0 1 2.48 2.421c-.029 3.6-4.213 5.565-5.046 5.558z"/><path class="cls-8" d="M36.09 13.5a2.362 2.362 0 0 1 .433-1.39 2.344 2.344 0 0 0-2.441 2.373c-.031 3.6 4.535 5.639 4.952 5.643A5.5 5.5 0 0 0 41.32 19.1a1.355 1.355 0 0 1-.278.044c-.416-.002-4.982-2.044-4.952-5.644z"/><path class="cls-9" d="M44.081 14.572a2.483 2.483 0 0 0-4.463-1.437 2.354 2.354 0 0 1 2.455 2.419 5.736 5.736 0 0 1-2.761 4.531c1.225-.285 4.741-2.211 4.769-5.513z"/><ellipse class="cls-10" cx="27.18" cy="3.026" rx=".825" ry="1.148" transform="rotate(-44.529 27.18 3.026)"/><ellipse class="cls-10" cx="26.913" cy="4.524" rx=".413" ry=".574" transform="rotate(-44.529 26.913 4.524)"/><ellipse class="cls-10" cx="32.085" cy="14.069" rx=".825" ry="1.148" transform="rotate(-44.529 32.086 14.069)"/><ellipse class="cls-10" cx="31.818" cy="15.567" rx=".413" ry=".574" transform="rotate(-44.529 31.82 15.567)"/><ellipse class="cls-10" cx="42.085" cy="14.154" rx=".825" ry="1.148" transform="rotate(-44.529 42.085 14.154)"/><ellipse class="cls-10" cx="41.818" cy="15.652" rx=".413" ry=".574" transform="rotate(-44.529 41.819 15.652)"/><path class="cls-11" d="M21.094 12.975a2.993 2.993 0 0 1-2.245-1.037.99.99 0 0 0-1.492-.013 3.006 3.006 0 0 1-4.508-.038.99.99 0 0 0-1.492-.013 3 3 0 0 1-4.507-.039.99.99 0 0 0-1.493-.012 3 3 0 0 1-4.185.274 4.006 4.006 0 0 0-.072.703l-.019 2.24a3 3 0 0 0 5.019-2.2 3 3 0 1 0 6 .052 3 3 0 1 0 6 .051 3 3 0 0 0 3.131 3.023 3.111 3.111 0 0 0 2.869-3.13L24.12 10a3 3 0 0 1-3.026 2.975zM43.737 25.151a.99.99 0 0 0-1.492-.012 3.005 3.005 0 0 1-4.508-.039.99.99 0 0 0-1.492-.013 3.005 3.005 0 0 1-4.507-.038.991.991 0 0 0-1.493-.013A3 3 0 0 1 25.738 25a.991.991 0 0 0-1.493-.012 3 3 0 0 1-4.507-.039.99.99 0 0 0-1.492-.013 3.006 3.006 0 0 1-4.508-.038.99.99 0 0 0-1.492-.013 3.005 3.005 0 0 1-4.508-.039.99.99 0 0 0-1.492-.012 2.99 2.99 0 0 1-5.082-1.094 3.955 3.955 0 0 0-.172 1.06l-.007.835A3.11 3.11 0 0 0 3.8 28.823a3 3 0 0 0 3.182-2.969 3 3 0 1 0 6 .052 3 3 0 0 0 6 .051 3 3 0 1 0 6 .051 3 3 0 1 0 6 .052 3 3 0 1 0 6 .051 3 3 0 0 0 6 .052 3.005 3.005 0 0 0 3.976 2.864l.025-3a3.012 3.012 0 0 1-3.246-.876z"/><path class="cls-12" d="M37.171 4.112c.014-1.66-1.765-3.015-3.975-3.034l-.8-.007s-3.2-.027-3.217 1.973l-.031.009a2.4 2.4 0 0 1 .027.391c0 .034-.008.066-.009.1a5.485 5.485 0 0 1 2.212-.482l.8.007c2.07.018 3.742 1.212 3.936 2.727a2.07 2.07 0 0 0 1.057-1.684zM16.18 2.932l.8.007a5.47 5.47 0 0 1 2.2.52c0-.034-.008-.066-.008-.1a2.473 2.473 0 0 1 .034-.39l-.03-.01C19.2.958 16 .931 16 .931l-.8-.007c-2.21-.019-4.011 1.306-4.025 2.965a2.068 2.068 0 0 0 1.026 1.7c.218-1.509 1.909-2.674 3.979-2.657z"/><path class="cls-13" d="M42.982 26.163a3 3 0 0 1-6-.052 3 3 0 1 1-6-.051 3 3 0 1 1-6-.052 3 3 0 1 1-6-.051 3 3 0 0 1-6-.051 3 3 0 1 1-6-.052 3 3 0 0 1-5.954.45 4.116 4.116 0 0 0-.055.5l-.008 1a3 3 0 1 0 6 .051 3 3 0 0 0 6 .052 3 3 0 0 0 6 .051 3 3 0 1 0 6 .051 3 3 0 0 0 6 .052 3 3 0 1 0 6 .051 3 3 0 1 0 6 .051 2.98 2.98 0 0 0 3.442 2.99 3.958 3.958 0 0 0 .549-1.955v-.17a3.005 3.005 0 0 1-3.976-2.864zM6.078 14.846a3 3 0 1 0 6 .052 3 3 0 0 0 6 .051 3 3 0 1 0 6 .051v-.6l.012-1.4a3 3 0 1 1-6-.051 3 3 0 1 1-6-.051 3 3 0 1 1-6-.052 3 3 0 0 1-5.019 2.2l-.01 1.754c0 .089.019.173.024.26a3 3 0 0 0 4.993-2.217z"/><path d="m44.922 33.179-42-.359A2 2 0 0 0 .907 34.8l46 .393a2 2 0 0 0-1.985-2.014z" style="fill:#d1cbfa"/><path class="cls-15" d="M34.065 16.486a2.535 2.535 0 0 0-.145-.859 6.935 6.935 0 0 1-4.886 4.416c-.374 0-4.028-1.625-4.8-4.524a2.539 2.539 0 0 0-.168.881c-.018 2.114 1.547 3.684 2.928 4.625l4.243.037a5.769 5.769 0 0 0 2.828-4.576zM44.064 16.571a2.529 2.529 0 0 0-.144-.858 6.939 6.939 0 0 1-4.886 4.416c-.374 0-4.028-1.625-4.8-4.523a2.507 2.507 0 0 0-.168.881c-.018 2.113 1.546 3.684 2.927 4.625l4.243.036a5.765 5.765 0 0 0 2.828-4.577z"/><path transform="rotate(.49 23.904 39.07)" style="fill:#7d649c" d="M21.872 36.999h4v4h-4z"/><circle class="cls-10" cx="33.991" cy="25.086" r="1"/><circle class="cls-10" cx="15.992" cy="24.932" r="1"/><circle class="cls-10" cx="22.009" cy="22.983" r="1"/><circle class="cls-10" cx="3.992" cy="24.829" r="1"/><circle class="cls-10" cx="15.094" cy="12.923" r="1"/><circle class="cls-10" cx="21.103" cy="11.975" r="1"/><circle class="cls-10" cx="9.009" cy="22.872" r="1"/><circle class="cls-10" cx="9.103" cy="11.872" r="1"/><circle class="cls-10" cx="29" cy="24.043" r="1"/><circle class="cls-10" cx="40.008" cy="23.137" r="1"/></g></svg>