<svg version="1.1" id="Drone_x5F_icons" xmlns="http://www.w3.org/2000/svg" x="0" y="0" viewBox="0 0 128 128" style="enable-background:new 0 0 128 128" xml:space="preserve"><style>.st0{fill:#010101}.st0,.st2{display:none}.st3{display:inline;fill:#010101}</style><g id="row3"><path id="icon:3_2_" d="m116.8 93.6-.3-.4-14-21H75.9c-.9 1.7-1.7 3.3-2.5 4.8H82l8.9 16.2H17.2L28.1 77h24.6c-.8-1.5-1.7-3.1-2.5-4.8H25.5L0 110.4h128l-11.2-16.8zM85.5 77h14.4l10.8 16.2H94.5l-9-16.2zM8.9 105.6l6.2-9.2h77.5l5.1 9.2H8.9zm87.3-9.2h16.7l6.2 9.2h-17.8l-5.1-9.2zM63 17.6c-11.9 0-21.5 9.7-21.5 21.6S63 87.7 63 87.7s21.5-36.6 21.5-48.5S74.9 17.6 63 17.6zm0 36.2c-8.2 0-14.8-6.6-14.8-14.7S54.9 24.4 63 24.4 77.8 31 77.8 39.1 71.2 53.8 63 53.8zm2.4-12.9c.9-1.2.8-2.9-.3-4s-2.8-1.2-4-.2c-2.7-6.9-8.1-7.6-8.1-7.6 1.1 4.2 4.3 6.9 7.6 8.2-.9 1.2-.8 2.9.3 4s2.8 1.2 4 .3c1.4 4.1 4.8 6.7 8.2 7.7-2-6.1-6-7.9-7.7-8.4z" style="fill:#010101"/></g></svg>