<svg xmlns="http://www.w3.org/2000/svg" viewBox="0 0 226.95 226.14"><defs><linearGradient id="linear-gradient" x1="13.71" y1="91.71" x2="218.09" y2="91.71" gradientTransform="rotate(-18.2 143.631 97.161)" gradientUnits="userSpaceOnUse"><stop offset="0" stop-color="#efa6c2"/><stop offset="1" stop-color="#96cdbd"/></linearGradient><style>.cls-3,.cls-4{fill:#f2a7c5;stroke:#1f2687;stroke-miterlimit:10;stroke-width:6px}.cls-4{fill:#9faed0;stroke:#212683}.cls-5{fill:#212683}</style></defs><g style="isolation:isolate"><g id="Layer_2" data-name="Layer 2"><g id="Layer_1-2" data-name="Layer 1"><path d="M152.19 68.18a56.58 56.58 0 0 0-17.07 9.23 67.89 67.89 0 1 0-86.88 55.47 56.69 56.69 0 1 0 99.83 41.21 56.68 56.68 0 1 0 4.12-105.9z" style="opacity:.4;mix-blend-mode:multiply;fill:url(#linear-gradient)"/><path class="cls-3" d="M109.39 33.63a16.48 16.48 0 0 1 16.47 16.47v16.48h-16.47A16.48 16.48 0 0 1 92.91 50.1a16.48 16.48 0 0 1 16.48-16.47z"/><path class="cls-3" d="M142.34 33.63h16.48V50.1a16.48 16.48 0 0 1-16.48 16.48 16.48 16.48 0 0 1-16.48-16.48 16.48 16.48 0 0 1 16.48-16.48z" transform="rotate(-180 142.34 50.105)"/><path class="cls-4" d="M87.23 66.49h77.27a5.9 5.9 0 0 1 5.9 5.9v41.3H81.33v-41.3a5.9 5.9 0 0 1 5.9-5.9z"/><path class="cls-4" d="M70.23 113.59H181.5a5.9 5.9 0 0 1 5.9 5.9v41.3H64.33v-41.3a5.9 5.9 0 0 1 5.9-5.9z"/><path class="cls-4" d="M43.51 160.69h164.71a5.9 5.9 0 0 1 5.9 5.9v41.3H37.61v-41.3a5.9 5.9 0 0 1 5.9-5.9z"/><path class="cls-5" d="M38.25 38.89h-2.36v-2.36a2.9 2.9 0 0 0-5.8 0v2.36h-2.36a2.9 2.9 0 0 0 0 5.8h2.36V47a2.9 2.9 0 1 0 5.8 0v-2.31h2.36a2.9 2.9 0 0 0 0-5.8zM219.38 121.39H217V119a2.9 2.9 0 0 0-5.8 0v2.36h-2.36a2.9 2.9 0 0 0 0 5.8h2.36v2.36a2.9 2.9 0 1 0 5.8 0v-2.36h2.36a2.9 2.9 0 0 0 0-5.8zM207.83 30.73h-2.36v-2.36a2.9 2.9 0 0 0-5.8 0v2.36h-2.36a2.9 2.9 0 0 0 0 5.8h2.36v2.36a2.9 2.9 0 1 0 5.8 0v-2.36h2.36a2.9 2.9 0 0 0 0-5.8z"/><path class="cls-3" d="M64.33 176.9H37.61v14.79h176.51V176.9H82.49M64.33 129.79H187.4v14.79H64.33zM81.33 82.69h89.07v14.79H81.33z"/><circle class="cls-5" cx="73.2" cy="176.9" r="3.41"/></g></g></g></svg>