<svg viewBox="0 0 64 64" xmlns="http://www.w3.org/2000/svg" xml:space="preserve" style="fill-rule:evenodd;clip-rule:evenodd;stroke-linecap:round;stroke-linejoin:round;stroke-miterlimit:2"><path style="fill:none" d="M0 0h64v64H0z"/><path d="M58.332 22.479c0 3.69-4.032 6.965-10.24 8.996M32 33.637c-4.632 0-8.973-.561-12.697-1.539M25.027 11.018A57.708 57.708 0 0 1 32 10.602c1.845 0 3.645.085 5.383.246" style="fill:none;stroke:#93370D;stroke-width:3px"/><path d="M43.742 11.831c8.646 1.923 14.59 5.903 14.59 10.496v10.195a2.228 2.228 0 0 1-2.61 2.197l-1.581-.274a4.633 4.633 0 0 0-3.95 1.178v.001c-3.088 2.884-11.921 4.065-17.686 4.123-4.297.043-5.618-.841-8.134-1.936 0 0-2.67 2.672-5.028 5.672-1.685 2.143-3.538 1.531-4.552.239-1.508-1.921-2.106-6.403-3.366-7.213l-4.05-2.603a3.717 3.717 0 0 1-1.707-3.127v-8.452c0-3.943 4.38-7.434 11.09-9.56" style="fill:none;stroke:#93370D;stroke-width:3px"/><path d="M57.058 34.536v7.704c0 6.158-11.228 11.158-25.058 11.158-11.627 0-21.415-3.534-24.238-8.319-.535-.906-.82-1.858-.82-2.839v-8.675M51.822 19.94l.182 1.82M13.689 23.762l-1.092-1.456" style="fill:none;stroke:#93370D;stroke-width:4px"/><circle cx="27.714" cy="19.94" r="5.519" style="fill:none;stroke:#93370D;stroke-width:2px"/><circle cx="37.383" cy="17.501" r="3.349" style="fill:none;stroke:#93370D;stroke-width:2px"/><path d="M37.383 14.152s-.697-3.546 1.958-5.387M27.582 17.534S27.648 9.602 19.345 8" style="fill:none;stroke:#93370D;stroke-width:2px"/></svg>