<svg xmlns="http://www.w3.org/2000/svg" viewBox="0 0 64 64"><path d="M57 1H27.92l12.71 8.48A2.992 2.992 0 0 1 42 12v41h15a1.003 1.003 0 0 0 1-1V2a1.003 1.003 0 0 0-1-1zM23 25.003A7.01 7.01 0 0 0 16 32h14a7.01 7.01 0 0 0-7-6.997zM23 28a4.003 4.003 0 0 0-3.666 2.401 1 1 0 0 1-.917.599.99.99 0 0 1-.4-.084 1 1 0 0 1-.515-1.317A6.005 6.005 0 0 1 23 26a1 1 0 0 1 0 2zM24.826 23.185a2 2 0 0 0-3.652 0 9.125 9.125 0 0 1 3.652 0zM32 34H14v2h18v-2z" style="fill:#373417"/><path d="M39 11H7a1 1 0 0 0-1 1v50a1 1 0 0 0 1 1h32a1 1 0 0 0 1-1V12a1 1 0 0 0-1-1zM12 33a1 1 0 0 1 1-1h1a9.002 9.002 0 0 1 5.005-8.053 3.995 3.995 0 0 1 7.99 0A9.001 9.001 0 0 1 32 32h1a1 1 0 0 1 1 1v4a1 1 0 0 1-1 1H13a1 1 0 0 1-1-1zm17 21H12a1 1 0 0 1 0-2h17a1 1 0 0 1 0 2zm0-4H12a1 1 0 0 1 0-2h17a1 1 0 0 1 0 2zm0-4H12a1 1 0 0 1 0-2h17a1 1 0 0 1 0 2zm5 8h-2a1 1 0 0 1 0-2h2a1 1 0 0 1 0 2zm0-4h-2a1 1 0 0 1 0-2h2a1 1 0 0 1 0 2zm0-4h-2a1 1 0 0 1 0-2h2a1 1 0 0 1 0 2zm0-4H12a1 1 0 0 1 0-2h22a1 1 0 0 1 0 2zM24.55 1.17a.963.963 0 0 0-1.02-.05A.984.984 0 0 0 23 2v7h13.3z" style="fill:#373417"/></svg>